HIERARCHY
ROOT Hips
{
	OFFSET 0.000000 0.000000 0.000000
	CHANNELS 6 Xposition Yposition Zposition Xrotation Yrotation Zrotation
	JOINT LeftUpLeg_virtual
	{
		OFFSET 0.000000 0.000000 0.000000
		CHANNELS 3 Xrotation Yrotation Zrotation
		JOINT LeftUpLeg
		{
			OFFSET 10.205400 -3.823500 0.155100
			CHANNELS 3 Xrotation Yrotation Zrotation
			JOINT LeftLeg
			{
				OFFSET 0.708757 -12.982077 0.567790
				CHANNELS 3 Xrotation Yrotation Zrotation
				JOINT LeftFoot
				{
					OFFSET -0.708756 -10.717838 -2.184338
					CHANNELS 3 Xrotation Yrotation Zrotation
					JOINT LeftToeBase
					{
						OFFSET 0.108149 -7.191104 7.560241
						CHANNELS 3 Xrotation Yrotation Zrotation
						JOINT LeftToe_End
						{
							OFFSET 0.070230 0.081724 4.490308
							CHANNELS 3 Xrotation Yrotation Zrotation
							End Site
							{
								OFFSET 0 0 0
							}
						}
					}
				}
			}
		}
	}
	JOINT RightUpLeg_virtual
	{
		OFFSET 0.000000 0.000000 0.000000
		CHANNELS 3 Xrotation Yrotation Zrotation
		JOINT RightUpLeg
		{
			OFFSET -10.205400 -3.823500 0.005500
			CHANNELS 3 Xrotation Yrotation Zrotation
			JOINT RightLeg
			{
				OFFSET -0.708756 -12.982134 0.610632
				CHANNELS 3 Xrotation Yrotation Zrotation
				JOINT RightFoot
				{
					OFFSET 0.708754 -10.717769 -1.945823
					CHANNELS 3 Xrotation Yrotation Zrotation
					JOINT RightToeBase
					{
						OFFSET -0.108140 -7.191069 7.372968
						CHANNELS 3 Xrotation Yrotation Zrotation
						JOINT RightToe_End
						{
							OFFSET -0.070227 0.081735 4.479403
							CHANNELS 3 Xrotation Yrotation Zrotation
							End Site
							{
								OFFSET 0 0 0
							}
						}
					}
				}
			}
		}
	}
	JOINT Spine_virtual
	{
		OFFSET 0.000000 0.000000 0.000000
		CHANNELS 3 Xrotation Yrotation Zrotation
		JOINT Spine
		{
			OFFSET 0.000000 6.876099 0.125700
			CHANNELS 3 Xrotation Yrotation Zrotation
			JOINT Spine1
			{
				OFFSET 0.000000 5.730043 0.104720
				CHANNELS 3 Xrotation Yrotation Zrotation
				JOINT Spine1_split
				{
					OFFSET 0.000000 5.730043 0.104720
					CHANNELS 3 Xrotation Yrotation Zrotation
					JOINT Spine2
					{
						OFFSET 0.000000 5.730043 0.104720
						CHANNELS 3 Xrotation Yrotation Zrotation
						JOINT Neck_virtual
						{
							OFFSET 0.000000 0.000000 0.000000
							CHANNELS 3 Xrotation Yrotation Zrotation
							JOINT Neck
							{
								OFFSET 0.000000 10.314075 0.188496
								CHANNELS 3 Xrotation Yrotation Zrotation
								JOINT Head
								{
									OFFSET 0.000000 7.643700 -2.377400
									CHANNELS 3 Xrotation Yrotation Zrotation
									JOINT HeadTop_End
									{
										OFFSET 0.000000 43.788605 -13.619600
										CHANNELS 3 Xrotation Yrotation Zrotation
										End Site
										{
											OFFSET 0 0 0
										}
									}
								}
							}
						}
						JOINT LeftShoulder_virtual
						{
							OFFSET 0.000000 0.000000 0.000000
							CHANNELS 3 Xrotation Yrotation Zrotation
							JOINT LeftShoulder
							{
								OFFSET 2.196100 4.412489 0.087492
								CHANNELS 3 Xrotation Yrotation Zrotation
								JOINT LeftShoulder_split
								{
									OFFSET 2.196100 4.412489 0.087492
									CHANNELS 3 Xrotation Yrotation Zrotation
									JOINT LeftArm
									{
										OFFSET 8.771219 -2.981674 -0.026999
										CHANNELS 3 Xrotation Yrotation Zrotation
										JOINT LeftForeArm
										{
											OFFSET 8.512804 0.000000 -0.000000
											CHANNELS 3 Xrotation Yrotation Zrotation
											JOINT LeftHand
											{
												OFFSET 18.484802 0.000000 -0.000000
												CHANNELS 3 Xrotation Yrotation Zrotation
												End Site
												{
													OFFSET 0 0 0
												}
											}
										}
									}
								}
							}
						}
						JOINT RightShoulder_virtual
						{
							OFFSET 0.000000 0.000000 0.000000
							CHANNELS 3 Xrotation Yrotation Zrotation
							JOINT RightShoulder
							{
								OFFSET -2.196100 4.412496 0.070690
								CHANNELS 3 Xrotation Yrotation Zrotation
								JOINT RightShoulder_split
								{
									OFFSET -2.196100 4.412496 0.070690
									CHANNELS 3 Xrotation Yrotation Zrotation
									JOINT RightArm
									{
										OFFSET -8.771282 -2.981682 -0.094208
										CHANNELS 3 Xrotation Yrotation Zrotation
										JOINT RightForeArm
										{
											OFFSET -8.494598 0.000000 0.000000
											CHANNELS 3 Xrotation Yrotation Zrotation
											JOINT RightHand
											{
												OFFSET -18.483803 0.000000 0.000001
												CHANNELS 3 Xrotation Yrotation Zrotation
												End Site
												{
													OFFSET 0 0 0
												}
											}
										}
									}
								}
							}
						}
					}
				}
			}
		}
	}
}
MOTION
Frames: 4
Frame Time: 0.03333333
-2.360191 30.006268 6.158459 0.000000 0.000000 0.000000 -3.868459 -27.733362 -1.363334 -29.616622 -5.831519 5.412415 39.830596 -4.124951 3.010221 -17.898644 -7.503265 -4.519152 -0.843030 0.988745 3.655466 0.000000 0.000000 0.000000 -7.874652 -22.242747 -0.712221 -4.042549 -6.584921 3.867168 39.813313 8.762712 -1.776912 -34.406211 -0.389897 -0.523097 -1.364577 3.288317 5.169132 0.000000 0.000000 0.000000 -5.760976 -39.278458 -1.700940 13.670029 8.477797 3.721327 -3.298959 19.086129 1.082652 -0.753140 5.541853 0.715981 0.000000 0.000000 0.000000 13.372772 21.753840 -5.175398 -1.669000 15.106483 3.775917 6.063722 49.026026 -4.591800 0.000000 0.000000 0.000000 13.120293 22.400457 -4.227552 7.458869 -9.581914 -5.207800 2.769779 -9.607067 -3.083532 -33.244532 3.886204 -54.591339 -83.245710 12.703584 -86.083012 0.000000 0.000000 0.000000 16.567824 22.271828 -5.828942 5.057375 20.980068 -9.339107 -11.464643 -1.984286 -10.032949 0.152457 36.414331 49.940561 -123.723454 69.970295 114.467427 0.000000 0.000000 0.000000 
-2.920901 30.106632 5.770956 0.000000 0.000000 0.000000 -4.422580 -24.890061 -0.816671 -27.668169 -3.610599 5.600951 34.890041 -2.772885 2.836378 -18.967516 -7.339442 -6.603565 -0.516896 1.506789 4.125181 0.000000 0.000000 0.000000 -8.336829 -19.144025 -0.123208 -2.934335 -6.694391 3.588261 37.866442 7.892963 0.336915 -33.771577 0.165769 -1.697341 -0.713345 3.935301 4.516116 0.000000 0.000000 0.000000 -7.060889 -36.091689 -1.643294 14.974379 8.133219 3.797510 -3.630917 19.293080 0.756377 -0.478209 5.297267 0.938746 0.000000 0.000000 0.000000 13.676685 21.653810 -5.510573 -4.155238 14.953886 3.404109 6.345164 48.165944 -4.768364 0.000000 0.000000 0.000000 12.814212 22.494335 -4.380314 7.525638 -9.070482 -5.130558 4.523734 -10.270926 -3.204248 -35.032932 4.961464 -54.568468 -84.691136 12.640028 -86.611115 0.000000 0.000000 0.000000 15.815108 21.995965 -6.169268 4.715436 21.407386 -8.653427 -11.930542 -1.733961 -10.411472 0.979380 37.221000 47.620840 -124.040238 68.993592 114.821204 0.000000 0.000000 0.000000 
-3.357896 30.222805 5.599751 0.000000 0.000000 0.000000 -4.924221 -21.989973 -0.449180 -26.244582 -0.004790 6.898781 30.766782 -1.089418 2.497458 -19.805653 -6.659365 -8.813857 -0.463535 2.101434 4.709262 0.000000 0.000000 0.000000 -8.530260 -16.274990 0.344281 -2.127743 -6.589530 2.736889 36.484507 6.565895 2.245259 -32.965075 0.310848 -2.948279 0.558579 4.407230 3.747536 0.000000 0.000000 0.000000 -7.970527 -33.162908 -1.605045 16.215871 7.782187 3.728425 -4.015375 19.238095 0.454944 -0.311230 4.883186 1.044080 0.000000 0.000000 0.000000 13.728154 21.389371 -5.680063 -6.996924 14.748597 3.593656 7.022319 47.148574 -5.103397 0.000000 0.000000 0.000000 12.483569 22.290802 -4.557996 7.853251 -9.124251 -4.124166 6.127075 -10.459230 -3.644551 -36.421157 4.375595 -54.073993 -85.679833 12.564280 -85.931990 0.000000 0.000000 0.000000 14.858462 21.537499 -6.302051 4.265293 21.714259 -7.612788 -10.908506 -0.648166 -11.204263 1.845788 38.417905 44.994124 -125.033129 68.584293 115.878312 0.000000 0.000000 0.000000 
-3.578872 30.352058 5.597789 0.000000 0.000000 0.000000 -5.261200 -18.989188 -0.389876 -25.746729 4.307011 9.392586 28.888709 0.707774 2.068083 -20.142914 -5.775515 -11.127567 -1.151611 2.741293 5.457564 0.000000 0.000000 0.000000 -8.438294 -13.440351 0.601221 -1.552445 -6.281103 1.745100 35.635330 4.876582 3.670167 -32.136105 0.058509 -4.171944 1.787352 4.646870 3.044343 0.000000 0.000000 0.000000 -8.207900 -30.242292 -1.541101 17.073381 7.547599 3.512653 -4.441940 19.013812 0.319820 -0.352993 4.314241 0.971119 0.000000 0.000000 0.000000 13.526075 21.085074 -5.600532 -9.664158 14.231430 4.454658 7.342541 45.875092 -5.341210 0.000000 0.000000 0.000000 11.882350 21.924639 -4.553279 8.342815 -9.679974 -2.273300 7.437816 -10.690691 -4.087924 -37.520025 2.938438 -53.101907 -86.555839 12.486125 -84.492357 0.000000 0.000000 0.000000 13.728689 21.040767 -6.096938 3.675755 21.731859 -6.439303 -8.758323 1.071481 -12.329437 2.817722 39.509277 41.916813 -128.375741 68.702414 119.170941 0.000000 0.000000 0.000000 
